<?xml version="1.0" standalone="no"?><svg xmlns="http://www.w3.org/2000/svg" viewBox="0 0 1440 320"><path fill="#e4d9ff" fill-opacity="1" d="M0,224L40,192C80,160,160,96,240,106.7C320,117,400,203,480,202.7C560,203,640,117,720,101.3C800,85,880,139,960,170.7C1040,203,1120,213,1200,208C1280,203,1360,181,1400,170.7L1440,160L1440,320L1400,320C1360,320,1280,320,1200,320C1120,320,1040,320,960,320C880,320,800,320,720,320C640,320,560,320,480,320C400,320,320,320,240,320C160,320,80,320,40,320L0,320Z"></path></svg>